<?xml version="1.0" standalone="no"?>
<svg xmlns="http://www.w3.org/2000/svg" viewBox="0 0 271.48035523978683 94.60035523978685" width="271.48035523978683" height="94.60035523978685"><rect fill="none" stroke="#c2a788" stroke-width="4" width="267.48035523978683" height="90.60035523978685" x="2" y="2"></rect><g fill="#786750" color="#786750" transform="translate(12 18.796) scale(5.2820856)"><svg width="13.366" height="10.793" x="0.0" y="0.0" viewBox="0 0 13.366 10.793"><path d="M12.793,10.181l-0.807-0.794c-0.964-0.794-0.847-1.927-0.859-2.044c-0.013-0.116-0.013-0.585,0.026-0.741  S11.14,6.276,11.14,6.276c0.287-1.172,1.211-0.847,1.211-0.847c0.377,0.039,0.391-0.325,0.391-0.325  c0.26-0.13,0.195-0.403,0.195-0.403L12.48,4.219c-0.182-0.481-0.702-0.599-0.702-0.599c0.077-0.481-0.17-0.781-0.17-0.781  c-0.039,0.143-0.585,0.719-0.625,0.729c-0.638,0.156-0.43,0.261-0.833,0.547s-1.263,0.638-1.64,0.43  C8.133,4.336,4.996,4.063,3.643,4.063c-0.401,0-0.714,0.083-0.956,0.199C2.465,4.092,2.179,3.725,1.968,3.226  C1.657,2.491,1.613,1.753,1.852,1.252c0.128-0.27,0.274-0.423,0.435-0.455c0.239-0.047,0.535,0.161,0.62,0.238  c0.16,0.147,0.409,0.137,0.557-0.023c0.148-0.16,0.139-0.41-0.021-0.558C3.38,0.396,2.812-0.108,2.139,0.021  C1.717,0.102,1.38,0.402,1.138,0.913C0.799,1.625,0.836,2.58,1.24,3.534c0.182,0.43,0.472,0.914,0.827,1.24  C1.974,4.904,1.937,5,1.937,5C1.82,5.273,1.495,5.885,1.612,6.445c0.117,0.56-0.234,0.82-0.299,0.885  C1.247,7.396,0.57,7.799,0.57,7.799l-0.56,1.979c-0.091,0.378,0.417,0.599,0.417,0.599c0.182-0.025,0.195-0.624,0.195-0.624  L1.065,8.71l1.666-0.611c0,0,0,0.703-0.026,0.833S2.614,9.283,2.614,9.283c0.065,0.455,1.185,1.51,1.185,1.51h0.846V10.52  c-0.065-0.3-0.495-0.156-0.495-0.156l-0.625-0.95c0.664-0.521,0.937-1.393,0.937-1.393c0.312,0.26,1.809-0.222,1.809-0.222  L7.17,7.89L6.91,9.985c-0.078,0.508,0.039,0.69,0.039,0.69h0.403c0.287,0,0.482,0.039,0.482-0.261c0-0.299-0.403-0.247-0.403-0.247  l0.988-1.952c0.938-0.573,1.536,0.26,1.536,0.26l0.053,0.3c0.364,0.533,2.369,1.9,2.369,1.9h0.989v-0.3  C13.196,10.063,12.793,10.181,12.793,10.181z"></path></svg></g><path fill="#786750" fill-rule="nonzero" d="M14.64 28.48Q10.48 28.48 7.14 26.64Q3.80 24.80 1.90 21.54Q0 18.28 0 14.24L0 14.24Q0 10.20 1.90 6.94Q3.80 3.68 7.16 1.84Q10.52 0 14.68 0L14.68 0Q17.80 0 20.44 1.04Q23.08 2.08 24.92 4.08L24.92 4.08L23.04 5.96Q19.76 2.64 14.76 2.64L14.76 2.64Q11.44 2.64 8.72 4.16Q6 5.68 4.46 8.32Q2.92 10.96 2.92 14.24L2.92 14.24Q2.92 17.52 4.46 20.16Q6 22.80 8.72 24.32Q11.44 25.84 14.76 25.84L14.76 25.84Q19.80 25.84 23.04 22.48L23.04 22.48L24.92 24.36Q23.08 26.36 20.42 27.42Q17.76 28.48 14.64 28.48L14.64 28.48ZM31.24 28.24L31.24 0.24L34.20 0.24L34.20 25.68L49.88 25.68L49.88 28.24L31.24 28.24ZM66.48 28.48Q62.32 28.48 58.94 26.62Q55.56 24.76 53.66 21.52Q51.76 18.28 51.76 14.24L51.76 14.24Q51.76 10.20 53.66 6.96Q55.56 3.72 58.94 1.86Q62.32 0 66.48 0L66.48 0Q70.64 0 73.98 1.84Q77.32 3.68 79.24 6.94Q81.16 10.20 81.16 14.24L81.16 14.24Q81.16 18.28 79.24 21.54Q77.32 24.80 73.98 26.64Q70.64 28.48 66.48 28.48L66.48 28.48ZM66.48 25.84Q69.80 25.84 72.48 24.34Q75.16 22.84 76.68 20.18Q78.20 17.52 78.20 14.24L78.20 14.24Q78.20 10.96 76.68 8.30Q75.16 5.64 72.48 4.14Q69.80 2.64 66.48 2.64L66.48 2.64Q63.16 2.64 60.46 4.14Q57.76 5.64 56.22 8.30Q54.68 10.96 54.68 14.24L54.68 14.24Q54.68 17.52 56.22 20.18Q57.76 22.84 60.46 24.34Q63.16 25.84 66.48 25.84L66.48 25.84ZM123.84 0.24L126.76 0.24L126.76 17.24Q126.76 22.80 124.02 25.64Q121.28 28.48 116.28 28.48L116.28 28.48Q112.96 28.48 110.62 27.20Q108.28 25.92 107.16 23.56L107.16 23.56Q106 25.96 103.68 27.22Q101.36 28.48 98.08 28.48L98.08 28.48Q93.04 28.48 90.30 25.64Q87.56 22.80 87.56 17.24L87.56 17.24L87.56 0.24L90.52 0.24L90.52 17.12Q90.52 25.84 98.08 25.84L98.08 25.84Q101.72 25.84 103.72 23.70Q105.72 21.56 105.72 17.12L105.72 17.12L105.72 0.24L108.64 0.24L108.64 17.12Q108.64 21.60 110.62 23.72Q112.60 25.84 116.28 25.84L116.28 25.84Q119.92 25.84 121.88 23.70Q123.84 21.56 123.84 17.12L123.84 17.12L123.84 0.24ZM134.04 10.80L133.84 0.24L136.36 0.24L136.16 10.80L134.04 10.80ZM151.44 28.48Q148.32 28.48 145.46 27.48Q142.60 26.48 141.04 24.84L141.04 24.84L142.20 22.56Q143.72 24.08 146.24 25.02Q148.76 25.96 151.44 25.96L151.44 25.96Q155.20 25.96 157.08 24.58Q158.96 23.20 158.96 21L158.96 21Q158.96 19.32 157.94 18.32Q156.92 17.32 155.44 16.78Q153.96 16.24 151.32 15.60L151.32 15.60Q148.16 14.80 146.28 14.06Q144.40 13.32 143.06 11.80Q141.72 10.28 141.72 7.68L141.72 7.68Q141.72 5.56 142.84 3.82Q143.96 2.08 146.28 1.04Q148.60 0 152.04 0L152.04 0Q154.44 0 156.74 0.66Q159.04 1.32 160.72 2.48L160.72 2.48L159.72 4.84Q157.96 3.68 155.96 3.10Q153.96 2.52 152.04 2.52L152.04 2.52Q148.36 2.52 146.50 3.94Q144.64 5.36 144.64 7.60L144.64 7.60Q144.64 9.28 145.66 10.30Q146.68 11.32 148.22 11.86Q149.76 12.40 152.36 13.04L152.36 13.04Q155.44 13.80 157.34 14.54Q159.24 15.28 160.56 16.78Q161.88 18.28 161.88 20.84L161.88 20.84Q161.88 22.96 160.74 24.70Q159.60 26.44 157.24 27.46Q154.88 28.48 151.44 28.48L151.44 28.48Z" transform="translate(97.601 12) scale(1)"></path><path fill="#786750" fill-rule="nonzero" d="M20.48 0.24L23.40 0.24L23.40 28.24L20.48 28.24L20.48 15.32L2.96 15.32L2.96 28.24L0 28.24L0 0.24L2.96 0.24L2.96 12.72L20.48 12.72L20.48 0.24ZM44.76 28.48Q40.60 28.48 37.22 26.62Q33.84 24.76 31.94 21.52Q30.04 18.28 30.04 14.24L30.04 14.24Q30.04 10.20 31.94 6.96Q33.84 3.72 37.22 1.86Q40.60 0 44.76 0L44.76 0Q48.92 0 52.26 1.84Q55.60 3.68 57.52 6.94Q59.44 10.20 59.44 14.24L59.44 14.24Q59.44 18.28 57.52 21.54Q55.60 24.80 52.26 26.64Q48.92 28.48 44.76 28.48L44.76 28.48ZM44.76 25.84Q48.08 25.84 50.76 24.34Q53.44 22.84 54.96 20.18Q56.48 17.52 56.48 14.24L56.48 14.24Q56.48 10.96 54.96 8.30Q53.44 5.64 50.76 4.14Q48.08 2.64 44.76 2.64L44.76 2.64Q41.44 2.64 38.74 4.14Q36.04 5.64 34.50 8.30Q32.96 10.96 32.96 14.24L32.96 14.24Q32.96 17.52 34.50 20.18Q36.04 22.84 38.74 24.34Q41.44 25.84 44.76 25.84L44.76 25.84ZM96.04 0Q100.84 0 103.52 2.76Q106.20 5.52 106.20 10.76L106.20 10.76L106.20 28.24L103.28 28.24L103.28 10.84Q103.28 6.76 101.22 4.70Q99.16 2.64 95.60 2.64L95.60 2.64Q91.84 2.64 89.72 4.82Q87.60 7 87.60 11.48L87.60 11.48L87.60 28.24L84.68 28.24L84.68 10.84Q84.68 6.76 82.68 4.70Q80.68 2.64 77.12 2.64L77.12 2.64Q73.32 2.64 71.18 4.82Q69.04 7 69.04 11.48L69.04 11.48L69.04 28.24L66.08 28.24L66.08 0.24L68.92 0.24L68.92 4.92Q70.08 2.52 72.36 1.26Q74.64 0 77.76 0L77.76 0Q81.04 0 83.38 1.38Q85.72 2.76 86.76 5.24L86.76 5.24Q87.96 2.68 90.38 1.34Q92.80 0 96.04 0L96.04 0ZM134 22.80L135.12 25.04Q133.40 26.68 130.54 27.58Q127.68 28.48 124.20 28.48L124.20 28.48Q120.52 28.48 117.94 27.48Q115.36 26.48 114.06 24.72Q112.76 22.96 112.76 20.68L112.76 20.68Q112.76 18.16 114.26 16.40Q115.76 14.64 118.20 13.96L118.20 13.96Q116.20 13.20 115.08 11.54Q113.96 9.88 113.96 7.64L113.96 7.64Q113.96 5.52 115.18 3.78Q116.40 2.04 118.86 1.02Q121.32 0 124.80 0L124.80 0Q127.36 0 129.78 0.58Q132.20 1.16 133.92 2.24L133.92 2.24L133 4.60Q129.32 2.52 124.92 2.52L124.92 2.52Q121.04 2.52 118.98 4Q116.92 5.48 116.92 7.84L116.92 7.84Q116.92 10.20 118.58 11.48Q120.24 12.76 123.28 12.76L123.28 12.76L130.24 12.76L130.24 15.32L123.16 15.32Q119.72 15.32 117.72 16.62Q115.72 17.92 115.72 20.48L115.72 20.48Q115.72 23 117.90 24.48Q120.08 25.96 124.32 25.96L124.32 25.96Q127.28 25.96 129.84 25.12Q132.40 24.28 134 22.80L134 22.80Z" transform="translate(97.601 48.481) scale(1.199)"></path></svg>